<mxfile host="app.diagrams.net" agent="Mozilla/5.0 (Windows NT 10.0; Win64; x64) AppleWebKit/537.36 (KHTML, like Gecko) Chrome/139.0.0.0 Safari/537.36" version="28.2.3">
  <diagram name="Page-1" id="4jCqsVta9YBGJokjuBqW">
    <mxGraphModel dx="1042" dy="1731" grid="1" gridSize="10" guides="1" tooltips="1" connect="1" arrows="1" fold="1" page="1" pageScale="1" pageWidth="827" pageHeight="1169" math="0" shadow="0">
      <root>
        <mxCell id="0" />
        <mxCell id="1" parent="0" />
        <mxCell id="9XlFjqnNwo3ZBEB4k6mD-11" style="edgeStyle=orthogonalEdgeStyle;rounded=0;orthogonalLoop=1;jettySize=auto;html=1;exitX=0.5;exitY=1;exitDx=0;exitDy=0;entryX=0.5;entryY=0;entryDx=0;entryDy=0;" edge="1" parent="1" source="9XlFjqnNwo3ZBEB4k6mD-2" target="9XlFjqnNwo3ZBEB4k6mD-4">
          <mxGeometry relative="1" as="geometry" />
        </mxCell>
        <mxCell id="9XlFjqnNwo3ZBEB4k6mD-2" value="&lt;font style=&quot;font-size: 22px;&quot;&gt;Develop&lt;/font&gt;" style="ellipse;whiteSpace=wrap;html=1;" vertex="1" parent="1">
          <mxGeometry x="350" y="-10" width="120" height="80" as="geometry" />
        </mxCell>
        <mxCell id="9XlFjqnNwo3ZBEB4k6mD-13" style="edgeStyle=orthogonalEdgeStyle;rounded=0;orthogonalLoop=1;jettySize=auto;html=1;exitX=0.5;exitY=1;exitDx=0;exitDy=0;entryX=0.5;entryY=0;entryDx=0;entryDy=0;" edge="1" parent="1" source="9XlFjqnNwo3ZBEB4k6mD-3" target="9XlFjqnNwo3ZBEB4k6mD-5">
          <mxGeometry relative="1" as="geometry" />
        </mxCell>
        <mxCell id="9XlFjqnNwo3ZBEB4k6mD-3" value="&lt;font style=&quot;font-size: 29px;&quot;&gt;Test&lt;/font&gt;" style="whiteSpace=wrap;html=1;aspect=fixed;" vertex="1" parent="1">
          <mxGeometry x="370" y="230" width="80" height="80" as="geometry" />
        </mxCell>
        <mxCell id="9XlFjqnNwo3ZBEB4k6mD-12" style="edgeStyle=orthogonalEdgeStyle;rounded=0;orthogonalLoop=1;jettySize=auto;html=1;exitX=0.5;exitY=1;exitDx=0;exitDy=0;entryX=0.5;entryY=0;entryDx=0;entryDy=0;" edge="1" parent="1" source="9XlFjqnNwo3ZBEB4k6mD-4" target="9XlFjqnNwo3ZBEB4k6mD-3">
          <mxGeometry relative="1" as="geometry" />
        </mxCell>
        <mxCell id="9XlFjqnNwo3ZBEB4k6mD-4" value="&lt;font style=&quot;font-size: 19px;&quot;&gt;Build&lt;/font&gt;" style="rhombus;whiteSpace=wrap;html=1;" vertex="1" parent="1">
          <mxGeometry x="370" y="110" width="80" height="80" as="geometry" />
        </mxCell>
        <mxCell id="9XlFjqnNwo3ZBEB4k6mD-14" style="edgeStyle=orthogonalEdgeStyle;rounded=0;orthogonalLoop=1;jettySize=auto;html=1;exitX=0.5;exitY=1;exitDx=0;exitDy=0;entryX=0.5;entryY=0;entryDx=0;entryDy=0;" edge="1" parent="1" source="9XlFjqnNwo3ZBEB4k6mD-5" target="9XlFjqnNwo3ZBEB4k6mD-7">
          <mxGeometry relative="1" as="geometry" />
        </mxCell>
        <mxCell id="9XlFjqnNwo3ZBEB4k6mD-5" value="&lt;font style=&quot;font-size: 21px;&quot;&gt;Release&lt;/font&gt;" style="shape=hexagon;perimeter=hexagonPerimeter2;whiteSpace=wrap;html=1;fixedSize=1;" vertex="1" parent="1">
          <mxGeometry x="350" y="350" width="120" height="80" as="geometry" />
        </mxCell>
        <mxCell id="9XlFjqnNwo3ZBEB4k6mD-15" style="edgeStyle=orthogonalEdgeStyle;rounded=0;orthogonalLoop=1;jettySize=auto;html=1;exitX=0.5;exitY=1;exitDx=0;exitDy=0;entryX=0.5;entryY=0;entryDx=0;entryDy=0;" edge="1" parent="1" source="9XlFjqnNwo3ZBEB4k6mD-7" target="9XlFjqnNwo3ZBEB4k6mD-8">
          <mxGeometry relative="1" as="geometry" />
        </mxCell>
        <mxCell id="9XlFjqnNwo3ZBEB4k6mD-7" value="&lt;font style=&quot;font-size: 21px;&quot;&gt;Deploy&lt;/font&gt;" style="shape=trapezoid;perimeter=trapezoidPerimeter;whiteSpace=wrap;html=1;fixedSize=1;" vertex="1" parent="1">
          <mxGeometry x="350" y="470" width="120" height="60" as="geometry" />
        </mxCell>
        <mxCell id="9XlFjqnNwo3ZBEB4k6mD-16" style="edgeStyle=orthogonalEdgeStyle;rounded=0;orthogonalLoop=1;jettySize=auto;html=1;exitX=0.5;exitY=1;exitDx=0;exitDy=0;entryX=0.5;entryY=0;entryDx=0;entryDy=0;" edge="1" parent="1" source="9XlFjqnNwo3ZBEB4k6mD-8" target="9XlFjqnNwo3ZBEB4k6mD-9">
          <mxGeometry relative="1" as="geometry" />
        </mxCell>
        <mxCell id="9XlFjqnNwo3ZBEB4k6mD-8" value="&lt;font style=&quot;font-size: 15px;&quot;&gt;Operator-Person/&lt;/font&gt;&lt;div&gt;&lt;font style=&quot;font-size: 15px;&quot;&gt;Actor&lt;/font&gt;&lt;/div&gt;" style="rounded=1;whiteSpace=wrap;html=1;" vertex="1" parent="1">
          <mxGeometry x="350" y="560" width="120" height="60" as="geometry" />
        </mxCell>
        <mxCell id="9XlFjqnNwo3ZBEB4k6mD-9" value="&lt;font style=&quot;font-size: 18px;&quot;&gt;Monitor&lt;/font&gt;" style="ellipse;whiteSpace=wrap;html=1;aspect=fixed;" vertex="1" parent="1">
          <mxGeometry x="370" y="660" width="80" height="80" as="geometry" />
        </mxCell>
        <mxCell id="9XlFjqnNwo3ZBEB4k6mD-18" style="edgeStyle=orthogonalEdgeStyle;rounded=0;orthogonalLoop=1;jettySize=auto;html=1;entryX=0.5;entryY=0;entryDx=0;entryDy=0;" edge="1" parent="1" source="9XlFjqnNwo3ZBEB4k6mD-17" target="9XlFjqnNwo3ZBEB4k6mD-2">
          <mxGeometry relative="1" as="geometry" />
        </mxCell>
        <mxCell id="9XlFjqnNwo3ZBEB4k6mD-17" value="&lt;font style=&quot;font-size: 24px;&quot;&gt;Plan&lt;/font&gt;" style="rounded=0;whiteSpace=wrap;html=1;" vertex="1" parent="1">
          <mxGeometry x="350" y="-110" width="120" height="60" as="geometry" />
        </mxCell>
      </root>
    </mxGraphModel>
  </diagram>
</mxfile>
